<svg width="32" height="32" viewBox="0 0 32 32" fill="none" xmlns="http://www.w3.org/2000/svg">
<path d="M5.33724 4H26.6706C27.407 4 28.0039 4.59696 28.0039 5.33333V26.6667C28.0039 27.4031 27.407 28 26.6706 28H5.33724C4.60085 28 4.00391 27.4031 4.00391 26.6667V5.33333C4.00391 4.59696 4.60085 4 5.33724 4ZM6.67057 6.66667V25.3333H25.3373V6.66667H6.67057ZM10.0039 12C8.89933 12 8.00391 11.1046 8.00391 10C8.00391 8.89543 8.89933 8 10.0039 8C11.1085 8 12.0039 8.89543 12.0039 10C12.0039 11.1046 11.1085 12 10.0039 12ZM8.67057 13.3333H11.3372V23.3333H8.67057V13.3333ZM16.0039 13.906C16.7831 13.1538 17.6913 12.6667 18.6706 12.6667C21.4319 12.6667 23.3373 14.9052 23.3373 17.6667V23.3333H20.6706V17.6667C20.6706 16.378 19.6259 15.3333 18.3373 15.3333C17.0486 15.3333 16.0039 16.378 16.0039 17.6667V23.3333H13.3373V13.3333H16.0039V13.906Z" fill="white"/>
</svg>
